<svg width="64" height="64" viewBox="0 0 64 64" fill="none" xmlns="http://www.w3.org/2000/svg">
<circle cx="32" cy="32" r="28" fill="#B92322" stroke="#B92322"/>
<path d="M28.1064 19.9469C28.106 24.7394 35.5431 29.6338 35.5431 29.6338C35.5431 29.6338 42.9797 24.7394 42.9797 19.9469C42.9797 17.7942 41.4041 16.0003 39.4386 16.0004C37.314 16.0004 35.5431 18.5118 35.5431 18.5118C35.5431 18.5118 34.153 16.0299 32.0018 16.0004C29.8507 15.9708 28.1066 17.7942 28.1064 19.9469Z" stroke="white" stroke-linecap="round" stroke-linejoin="round"/>
<path d="M18.604 40.3756C20.2566 38.4476 23.9749 34.5089 25.6275 34.1784C27.6932 33.7653 30.9984 35.0047 33.8904 35.0047C36.7824 35.0047 39.2613 35.0047 38.8481 36.6573C38.435 38.3099 34.3035 38.3099 30.5852 37.8967C29.9261 37.8235 28.9326 37.8967 28.1064 38.3099" stroke="white" stroke-linecap="round" stroke-linejoin="round"/>
<path d="M38.8481 35.831C40.6384 34.4538 44.3842 31.6169 45.0452 31.2864C45.8715 30.8732 47.111 30.8732 47.111 32.1127C47.111 33.3521 40.7979 41.8404 36.6664 42.6667C32.535 43.4929 29.1624 42.0911 27.1045 43.3333C26.0001 44 25.2176 44.7825 24.6667 45.3333" stroke="white" stroke-linecap="round" stroke-linejoin="round"/>
<rect x="17.3331" y="39.2" width="10.6667" height="2.67207" transform="rotate(45 17.3331 39.2)" stroke="white" stroke-linecap="round" stroke-linejoin="round"/>
</svg>
