<svg width="22" height="22" viewBox="0 0 22 22" fill="none" xmlns="http://www.w3.org/2000/svg">
<path fill-rule="evenodd" clip-rule="evenodd" d="M0 5C0 2.23858 2.23858 0 5 0H17C19.7614 0 22 2.23858 22 5V17C22 19.7614 19.7614 22 17 22H5C2.23858 22 0 19.7614 0 17V5ZM11.1027 6C8.26633 6 5.96501 8.30117 5.96501 11.1377C5.96501 13.9743 8.26633 16.2754 11.1027 16.2754C13.9393 16.2754 16.2405 13.9743 16.2405 11.1377C16.2405 8.30117 13.9393 6 11.1027 6ZM11.1027 14.4704C9.26262 14.4704 7.77002 12.978 7.77002 11.1377C7.77002 9.29746 9.26262 7.80501 11.1027 7.80501C12.943 7.80501 14.4354 9.29746 14.4354 11.1377C14.4354 12.978 12.943 14.4704 11.1027 14.4704ZM16.343 6.86035C17.0055 6.86035 17.5426 6.32329 17.5426 5.66093C17.5426 4.99842 17.0055 4.46151 16.343 4.46151C15.6806 4.46151 15.1436 4.99842 15.1436 5.66093C15.1436 6.32329 15.6806 6.86035 16.343 6.86035Z" fill="white"/>
</svg>
