<svg width="56" height="56" viewBox="0 0 56 56" fill="none" xmlns="http://www.w3.org/2000/svg">
<circle cx="28" cy="28" r="24.5" stroke="white"/>
<path fill-rule="evenodd" clip-rule="evenodd" d="M17.5 17.0042C17.5 16.2793 18.0876 15.6917 18.8125 15.6917H21.9625C22.6874 15.6917 23.275 16.2793 23.275 17.0042V32.7542C23.275 33.4791 22.6874 34.0667 21.9625 34.0667C21.2376 34.0667 20.65 33.4791 20.65 32.7542V18.3167H18.8125C18.0876 18.3167 17.5 17.7291 17.5 17.0042Z" fill="white"/>
<path fill-rule="evenodd" clip-rule="evenodd" d="M24.7107 28.9412C23.7561 30.2312 23.3455 31.8151 23.2717 32.8477C23.2201 33.5707 22.5921 34.115 21.8691 34.0633C21.146 34.0117 20.6018 33.3837 20.6534 32.6607C20.7547 31.2432 21.2891 29.1521 22.6007 27.3797C23.9528 25.5525 26.1208 24.0917 29.3126 24.0917C32.4223 24.0917 34.6443 25.3084 36.06 27.078C37.438 28.8005 37.9751 30.946 37.9751 32.7542C37.9751 34.1892 37.5554 36.3125 36.2577 38.1148C34.9119 39.984 32.6804 41.4167 29.3126 41.4167C28.5877 41.4167 28.0001 40.8291 28.0001 40.1042C28.0001 39.3793 28.5877 38.7917 29.3126 38.7917C31.8248 38.7917 33.2683 37.7743 34.1274 36.581C35.0348 35.3208 35.3501 33.7691 35.3501 32.7542C35.3501 31.4124 34.9422 29.8828 34.0102 28.7178C33.1159 27.6 31.6629 26.7167 29.3126 26.7167C27.0444 26.7167 25.6249 27.7059 24.7107 28.9412Z" fill="white"/>
<path fill-rule="evenodd" clip-rule="evenodd" d="M29.3125 17.7917C28.5876 17.7917 28 18.3793 28 19.1042C28 19.8291 28.5876 20.4167 29.3125 20.4167C30.0374 20.4167 30.625 19.8291 30.625 19.1042C30.625 18.3793 30.0374 17.7917 29.3125 17.7917ZM25.375 19.1042C25.375 16.9296 27.1379 15.1667 29.3125 15.1667C31.4871 15.1667 33.25 16.9296 33.25 19.1042C33.25 21.2788 31.4871 23.0417 29.3125 23.0417C27.1379 23.0417 25.375 21.2788 25.375 19.1042Z" fill="white"/>
<path d="M30.8875 32.7542C30.8875 33.624 30.1823 34.3292 29.3125 34.3292C28.4426 34.3292 27.7375 33.624 27.7375 32.7542C27.7375 31.8844 28.4426 31.1792 29.3125 31.1792C30.1823 31.1792 30.8875 31.8844 30.8875 32.7542Z" fill="white"/>
</svg>
