<svg width="23" height="22" viewBox="0 0 23 22" fill="none" xmlns="http://www.w3.org/2000/svg">
<path fill-rule="evenodd" clip-rule="evenodd" d="M2.72859 0C1.07872 0 0 1.08339 0 2.50735C0 3.89987 1.04658 5.01416 2.66528 5.01416H2.69659C4.37874 5.01416 5.4256 3.89987 5.4256 2.50735C5.39415 1.08339 4.37874 0 2.72859 0ZM0.285156 6.99561H5.10843V21.5066H0.285156V6.99561ZM12.6008 9.0998C12.6008 9.0998 14.3455 6.65479 16.9475 6.65479C20.1206 6.65479 22.5003 8.72887 22.5003 13.186V21.5064H17.6774V13.7435C17.6774 11.7927 16.9794 10.462 15.234 10.462C13.9015 10.462 13.108 11.3594 12.7594 12.2257C12.6319 12.5359 12.6005 12.9691 12.6005 13.4029V21.5064H7.77734V6.99536H12.6008V9.0998Z" fill="white"/>
</svg>
