<svg width="23" height="19" viewBox="0 0 23 19" fill="none" xmlns="http://www.w3.org/2000/svg">
<path d="M7.07609 18.2859C15.5671 18.2859 20.2105 11.2514 20.2105 5.15152C20.2105 4.95172 20.2063 4.75276 20.1974 4.55489C21.0987 3.90323 21.882 3.09003 22.5001 2.16441C21.673 2.53221 20.7827 2.77947 19.8491 2.89134C20.8021 2.31962 21.5339 1.4156 21.879 0.33794C20.9871 0.866727 19.9993 1.2509 18.9477 1.4584C18.1054 0.561123 16.9059 0 15.578 0C13.0288 0 10.9614 2.06727 10.9614 4.61557C10.9614 4.97801 11.002 5.33026 11.0811 5.66819C7.24451 5.47515 3.84227 3.63836 1.56572 0.845124C1.16944 1.5272 0.940755 2.31976 0.940755 3.16543C0.940755 4.76679 1.75575 6.18088 2.99495 7.00784C2.23761 6.98459 1.52623 6.77668 0.904291 6.43062C0.903603 6.45002 0.903603 6.46888 0.903603 6.48951C0.903603 8.7252 2.49478 10.5918 4.60732 11.0148C4.21929 11.1204 3.81104 11.1772 3.38999 11.1772C3.09306 11.1772 2.80355 11.148 2.5223 11.0939C3.10998 12.9281 4.81426 14.2628 6.83475 14.3002C5.25471 15.5386 3.26437 16.2763 1.10119 16.2763C0.72913 16.2763 0.361331 16.255 0 16.2123C2.04305 17.5218 4.46903 18.286 7.07623 18.286" fill="white"/>
</svg>
