<svg width="72" height="72" viewBox="0 0 72 72" fill="none" xmlns="http://www.w3.org/2000/svg">
<path fill-rule="evenodd" clip-rule="evenodd" d="M36.1506 0C45.7401 0.00411423 54.7407 3.71979 61.5095 10.4631C68.2775 17.2068 72.0033 26.1709 72 35.7047C71.9916 55.3752 55.908 71.3823 36.1506 71.3823H36.1505H36.1352C30.1358 71.3799 24.2404 69.8819 19.0043 67.0391L0 72L5.08592 53.5125C1.94903 48.1019 0.298675 41.9638 0.300977 35.6757C0.308888 16.0042 16.39 0 36.1506 0ZM36.139 65.3565H36.1506C52.5734 65.3565 65.9399 52.053 65.9468 35.7021C65.9492 27.7781 62.8533 20.3274 57.2276 14.7226C51.6015 9.11779 44.121 6.02929 36.1619 6.026C19.7262 6.026 6.36011 19.3277 6.35356 35.678C6.35132 41.281 7.92604 46.7376 10.909 51.4593L11.6182 52.5811L8.60723 63.5236L19.8848 60.58L20.9733 61.2224C25.5474 63.9244 30.7914 65.3537 36.139 65.3565Z" fill="#E0E0E0"/>
<path d="M1.64569 69.9487L6.49929 52.3057C3.50493 47.1422 1.93026 41.2841 1.93214 35.2844C1.94 16.5119 17.2867 1.23914 36.143 1.23914C45.2949 1.24325 53.8845 4.78901 60.3427 11.2244C66.8023 17.6598 70.3576 26.2138 70.3538 35.311C70.346 54.084 54.9983 69.3581 36.1444 69.3581C36.143 69.3581 36.1453 69.3581 36.1444 69.3581H36.1291C30.4038 69.3563 24.7781 67.9255 19.7816 65.2145L1.64569 69.9487H1.64569Z" fill="url(#paint0_linear_1_268)"/>
<path fill-rule="evenodd" clip-rule="evenodd" d="M27.2918 20.5296C26.6285 19.0616 25.9302 19.0322 25.2992 19.0065C24.7831 18.9845 24.1923 18.9859 23.6024 18.9859C23.012 18.9859 22.0526 19.2067 21.2413 20.0888C20.4295 20.9709 18.1418 23.1033 18.1418 27.4402C18.1418 31.7776 21.3151 35.9686 21.7574 36.5572C22.2002 37.145 27.8831 46.3295 36.8832 49.8628C44.3631 52.7993 45.8852 52.2152 47.5087 52.0682C49.1323 51.9213 52.7474 49.9363 53.4854 47.8778C54.2234 45.8197 54.2234 44.0556 54.002 43.6868C53.7806 43.3195 53.1902 43.0991 52.3047 42.6583C51.4191 42.2175 47.066 40.0846 46.2542 39.7907C45.4424 39.4968 44.852 39.3499 44.2616 40.2325C43.6713 41.1141 41.9753 43.0991 41.4587 43.6868C40.9421 44.2759 40.4255 44.3494 39.5399 43.9086C38.6544 43.4664 35.8025 42.5365 32.4194 39.5335C29.7871 37.1972 28.0099 34.3117 27.4933 33.4292C26.9768 32.5476 27.438 32.0701 27.8822 31.6306C28.2797 31.2357 28.7677 30.6016 29.2105 30.0868C29.6524 29.5721 29.8 29.2047 30.0952 28.617C30.3903 28.0283 30.2428 27.5136 30.0214 27.0728C29.8 26.632 28.0791 22.2727 27.2918 20.5296Z" fill="white"/>
<path fill-rule="evenodd" clip-rule="evenodd" d="M36.149 0.00671387C45.6283 0.0108869 54.5256 3.68384 61.2168 10.3497C67.9071 17.0161 71.59 25.8772 71.5868 35.3014C71.5785 54.7462 55.6796 70.5694 36.149 70.5694H36.1489H36.1338C30.2032 70.5671 24.3755 69.0863 19.1995 66.2761L0.41333 71.1802L5.4408 52.9049C2.33993 47.5564 0.708522 41.4889 0.710824 35.2729C0.718676 15.8272 16.6152 0.00671387 36.149 0.00671387ZM36.1375 64.613H36.149C52.3831 64.613 65.5962 51.4621 65.6031 35.2992C65.6054 27.466 62.5451 20.1008 56.984 14.5604C51.4224 9.01991 44.0279 5.96686 36.1601 5.96362C19.913 5.96362 6.70037 19.1126 6.69393 35.2752C6.69163 40.8138 8.24829 46.2078 11.197 50.8753L11.898 51.9842L8.92168 62.8011L20.0698 59.8913L21.1459 60.5263C25.6674 63.1973 30.8512 64.6102 36.1375 64.613Z" fill="white"/>
<defs>
<linearGradient id="paint0_linear_1_268" x1="70.3538" y1="69.9487" x2="70.3538" y2="1.23925" gradientUnits="userSpaceOnUse">
<stop stop-color="#20B038"/>
<stop offset="1" stop-color="#60D66A"/>
</linearGradient>
</defs>
</svg>
