<svg width="24" height="18" viewBox="0 0 24 18" fill="none" xmlns="http://www.w3.org/2000/svg">
<path fill-rule="evenodd" clip-rule="evenodd" d="M21.3813 0.755887C22.4266 1.05161 23.2338 1.88382 23.4976 2.93759C23.8436 4.85606 24.0116 6.80242 23.9994 8.75182C24.0063 10.6721 23.8383 12.589 23.4976 14.4788C23.2338 15.5326 22.4266 16.3648 21.3813 16.6605C19.5051 17.1623 12 17.1623 12 17.1623C12 17.1623 4.49497 17.1623 2.61871 16.6605C1.59553 16.3805 0.793009 15.5863 0.50246 14.5661C0.156408 12.6476 -0.0115708 10.7012 0.000669355 8.75182C-0.00889094 6.81699 0.159077 4.88536 0.50246 2.98122C0.766216 1.92745 1.57346 1.09524 2.61871 0.799521C4.49497 0.297729 12 0.297729 12 0.297729C12 0.297729 19.5051 0.297729 21.3813 0.755887ZM9.54561 12.3189L11.5456 11.1815L13.7951 9.90222L15.818 8.75182L13.7951 7.60142L11.5456 6.32213L9.54561 5.18474V7.48553V10.0181V12.3189ZM11.5456 8.62292L11.7723 8.75182L11.5456 8.88071V8.62292Z" fill="white"/>
</svg>
